<svg width="74" height="74" viewBox="0 0 74 74" fill="none" xmlns="http://www.w3.org/2000/svg">
<circle cx="37" cy="37" r="37" fill="#CAB7A6"/>
<path d="M1.05 20.5C1.05 16.9 1.65 14.19 2.85 12.37C4.05 10.55 5.77 9.64 8.01 9.64C10.43 9.64 12.2 10.54 13.32 12.34C14.44 14.12 15 16.84 15 20.5C15 24.1 14.39 26.81 13.17 28.63C11.97 30.45 10.19 31.36 7.83 31.36C6.61 31.36 5.57 31.12 4.71 30.64C3.85 30.14 3.15 29.43 2.61 28.51C2.07 27.57 1.67 26.43 1.41 25.09C1.17 23.75 1.05 22.22 1.05 20.5ZM3.93 20.5C3.93 21.94 4 23.25 4.14 24.43C4.28 25.61 4.5 26.63 4.8 27.49C5.12 28.33 5.52 28.98 6 29.44C6.5 29.9 7.1 30.13 7.8 30.13C9.38 30.13 10.49 29.35 11.13 27.79C11.79 26.23 12.12 23.8 12.12 20.5C12.12 19.06 12.06 17.75 11.94 16.57C11.82 15.39 11.6 14.38 11.28 13.54C10.96 12.7 10.53 12.05 9.99 11.59C9.47 11.13 8.81 10.9 8.01 10.9C6.51 10.9 5.45 11.68 4.83 13.24C4.23 14.78 3.93 17.2 3.93 20.5ZM28.7461 31H19.9861V30.13C20.4861 29.91 20.9861 29.72 21.4861 29.56C22.0061 29.38 22.5261 29.23 23.0461 29.11V14.38L23.1661 12.61C22.6061 12.83 22.0261 12.99 21.4261 13.09C20.8261 13.17 20.2061 13.2 19.5661 13.18L19.4161 12.46C20.3361 12.16 21.2861 11.79 22.2661 11.35C23.2461 10.89 24.1561 10.32 24.9961 9.64H25.7461V29.11C26.2461 29.23 26.7461 29.38 27.2461 29.56C27.7461 29.72 28.2461 29.91 28.7461 30.13V31Z" transform="translate(22 16)" fill="white"/>
</svg>
