<svg width="74" height="74" viewBox="0 0 74 74" fill="none" xmlns="http://www.w3.org/2000/svg">
<circle cx="37" cy="37" r="37" fill="#CAB7A6"/>
<path d="M12.5539 20.5C12.5539 16.9 13.1539 14.19 14.3539 12.37C15.5539 10.55 17.2739 9.64 19.5139 9.64C21.9339 9.64 23.7039 10.54 24.8239 12.34C25.9439 14.12 26.5039 16.84 26.5039 20.5C26.5039 24.1 25.8939 26.81 24.6739 28.63C23.4739 30.45 21.6939 31.36 19.3339 31.36C18.1139 31.36 17.0739 31.12 16.2139 30.64C15.3539 30.14 14.6539 29.43 14.1139 28.51C13.5739 27.57 13.1739 26.43 12.9139 25.09C12.6739 23.75 12.5539 22.22 12.5539 20.5ZM15.4339 20.5C15.4339 21.94 15.5039 23.25 15.6439 24.43C15.7839 25.61 16.0039 26.63 16.3039 27.49C16.6239 28.33 17.0239 28.98 17.5039 29.44C18.0039 29.9 18.6039 30.13 19.3039 30.13C20.8839 30.13 21.9939 29.35 22.6339 27.79C23.2939 26.23 23.6239 23.8 23.6239 20.5C23.6239 19.06 23.5639 17.75 23.4439 16.57C23.3239 15.39 23.1039 14.38 22.7839 13.54C22.4639 12.7 22.0339 12.05 21.4939 11.59C20.9739 11.13 20.3139 10.9 19.5139 10.9C18.0139 10.9 16.9539 11.68 16.3339 13.24C15.7339 14.78 15.4339 17.2 15.4339 20.5ZM31.49 15.85H30.74C30.52 15.27 30.29 14.59 30.05 13.81C29.83 13.03 29.64 12.29 29.48 11.59C30.18 10.99 31.02 10.52 32 10.18C32.98 9.82 34.04 9.64 35.18 9.64C36.18 9.64 37.04 9.78 37.76 10.06C38.48 10.34 39.07 10.72 39.53 11.2C40.01 11.68 40.36 12.24 40.58 12.88C40.8 13.5 40.91 14.15 40.91 14.83C40.91 15.95 40.65 17.1 40.13 18.28C39.61 19.46 38.96 20.61 38.18 21.73C37.42 22.83 36.59 23.87 35.69 24.85C34.79 25.83 33.96 26.69 33.2 27.43L31.94 28.6V28.72L33.62 28.54H38.78L40.25 25.18H41C41.04 25.62 41.08 26.1 41.12 26.62C41.16 27.14 41.19 27.67 41.21 28.21C41.25 28.73 41.28 29.24 41.3 29.74C41.32 30.22 41.33 30.64 41.33 31H28.94V30.04C29.38 29.58 29.91 29.02 30.53 28.36C31.17 27.7 31.83 26.97 32.51 26.17C33.19 25.37 33.86 24.52 34.52 23.62C35.2 22.72 35.8 21.81 36.32 20.89C36.84 19.95 37.26 19.02 37.58 18.1C37.92 17.18 38.09 16.3 38.09 15.46C38.09 14.88 38.01 14.33 37.85 13.81C37.71 13.29 37.49 12.84 37.19 12.46C36.89 12.06 36.52 11.75 36.08 11.53C35.66 11.31 35.17 11.2 34.61 11.2C34.19 11.2 33.82 11.23 33.5 11.29C33.18 11.35 32.83 11.44 32.45 11.56L31.49 15.85Z" transform="translate(10 16)" fill="white"/>
</svg>
