<svg width="74" height="74" viewBox="0 0 74 74" fill="none" xmlns="http://www.w3.org/2000/svg">
<circle cx="37" cy="37" r="37" fill="#CAB7A6"/>
<path d="M1.05 20.5C1.05 16.9 1.65 14.19 2.85 12.37C4.05 10.55 5.77 9.64 8.01 9.64C10.43 9.64 12.2 10.54 13.32 12.34C14.44 14.12 15 16.84 15 20.5C15 24.1 14.39 26.81 13.17 28.63C11.97 30.45 10.19 31.36 7.83 31.36C6.61 31.36 5.57 31.12 4.71 30.64C3.85 30.14 3.15 29.43 2.61 28.51C2.07 27.57 1.67 26.43 1.41 25.09C1.17 23.75 1.05 22.22 1.05 20.5ZM3.93 20.5C3.93 21.94 4 23.25 4.14 24.43C4.28 25.61 4.5 26.63 4.8 27.49C5.12 28.33 5.52 28.98 6 29.44C6.5 29.9 7.1 30.13 7.8 30.13C9.38 30.13 10.49 29.35 11.13 27.79C11.79 26.23 12.12 23.8 12.12 20.5C12.12 19.06 12.06 17.75 11.94 16.57C11.82 15.39 11.6 14.38 11.28 13.54C10.96 12.7 10.53 12.05 9.99 11.59C9.47 11.13 8.81 10.9 8.01 10.9C6.51 10.9 5.45 11.68 4.83 13.24C4.23 14.78 3.93 17.2 3.93 20.5ZM23.6761 29.95C24.2361 29.95 24.7561 29.83 25.2361 29.59C25.7161 29.33 26.1361 28.99 26.4961 28.57C26.8561 28.13 27.1361 27.63 27.3361 27.07C27.5561 26.51 27.6661 25.92 27.6661 25.3C27.6661 24.56 27.5461 23.91 27.3061 23.35C27.0861 22.79 26.7761 22.33 26.3761 21.97C25.9761 21.59 25.5061 21.31 24.9661 21.13C24.4461 20.93 23.8761 20.83 23.2561 20.83H21.3061V20.02L26.3461 13.27L27.3661 12.22V12.1L25.7461 12.28H20.6761L19.5061 15.34H18.7561C18.6761 14.92 18.5961 14.47 18.5161 13.99C18.4561 13.51 18.3961 13.04 18.3361 12.58C18.2761 12.1 18.2261 11.64 18.1861 11.2C18.1461 10.76 18.1261 10.36 18.1261 10H29.8561V10.93L24.8461 17.62L23.5561 18.94V19L24.5761 18.79C25.5161 18.83 26.3561 19.01 27.0961 19.33C27.8361 19.65 28.4561 20.08 28.9561 20.62C29.4761 21.14 29.8661 21.76 30.1261 22.48C30.4061 23.18 30.5461 23.95 30.5461 24.79C30.5461 25.79 30.3461 26.7 29.9461 27.52C29.5461 28.32 29.0061 29.01 28.3261 29.59C27.6661 30.15 26.8961 30.59 26.0161 30.91C25.1561 31.21 24.2461 31.36 23.2861 31.36C22.8261 31.36 22.3361 31.32 21.8161 31.24C21.2961 31.18 20.7861 31.08 20.2861 30.94C19.7861 30.8 19.3161 30.64 18.8761 30.46C18.4561 30.28 18.0961 30.07 17.7961 29.83L18.6361 27.13H19.2361C19.3561 27.27 19.5161 27.45 19.7161 27.67C19.9361 27.89 20.1561 28.12 20.3761 28.36C20.6161 28.6 20.8461 28.84 21.0661 29.08C21.2861 29.32 21.4761 29.53 21.6361 29.71C21.8361 29.75 22.0961 29.8 22.4161 29.86C22.7361 29.92 23.1561 29.95 23.6761 29.95Z" transform="translate(22 16)" fill="white"/>
</svg>
